<?xml version="1.0" encoding="UTF-8" standalone="no"?>
<!-- Created with Inkscape (http://www.inkscape.org/) -->

<svg
   xmlns:dc="http://purl.org/dc/elements/1.1/"
   xmlns:cc="http://creativecommons.org/ns#"
   xmlns:rdf="http://www.w3.org/1999/02/22-rdf-syntax-ns#"
   xmlns:svg="http://www.w3.org/2000/svg"
   xmlns="http://www.w3.org/2000/svg"
   xmlns:sodipodi="http://sodipodi.sourceforge.net/DTD/sodipodi-0.dtd"
   xmlns:inkscape="http://www.inkscape.org/namespaces/inkscape"
   width="24in"
   height="18in"
   viewBox="0 0 609.6 457.2"
   version="1.1"
   id="svg8"
   inkscape:version="0.91 r13725"
   sodipodi:docname="puzzlebox_chamber_walls.svg">
  <defs
     id="defs2" />
  <sodipodi:namedview
     id="base"
     pagecolor="#ffffff"
     bordercolor="#666666"
     borderopacity="1.0"
     inkscape:pageopacity="0.0"
     inkscape:pageshadow="2"
     inkscape:zoom="0.25"
     inkscape:cx="-304.62118"
     inkscape:cy="366.57422"
     inkscape:document-units="mm"
     inkscape:current-layer="layer1"
     showgrid="false"
     units="in"
     inkscape:window-width="1600"
     inkscape:window-height="837"
     inkscape:window-x="-8"
     inkscape:window-y="-8"
     inkscape:window-maximized="1"
     scale-x="1"
     inkscape:snap-intersection-paths="true"
     inkscape:snap-bbox="true"
     inkscape:bbox-nodes="true"
     inkscape:bbox-paths="true"
     inkscape:snap-bbox-edge-midpoints="true"
     inkscape:snap-bbox-midpoints="true" />
  <metadata
     id="metadata5">
    <rdf:RDF>
      <cc:Work
         rdf:about="">
        <dc:format>image/svg+xml</dc:format>
        <dc:type
           rdf:resource="http://purl.org/dc/dcmitype/StillImage" />
        <dc:title />
      </cc:Work>
    </rdf:RDF>
  </metadata>
  <g
     inkscape:label="Layer 1"
     inkscape:groupmode="layer"
     id="layer1"
     transform="translate(0,160.20003)">
    <path
       style="fill:none;stroke:#000000;stroke-width:0.99999994;stroke-miterlimit:4;stroke-dasharray:none;stroke-opacity:1"
       d="M -1574.9062 2136.1875 L -1574.9062 2533.0391 L -1489.8672 2533.0391 L -1489.8672 2703.1172 L -1489.8672 2722.0156 L -526.08789 2722.0156 L -526.08789 2703.1172 L -526.08789 2533.0391 L -441.04883 2533.0391 L -441.04883 2136.1875 L -1574.9062 2136.1875 z "
       transform="matrix(0.26458333,0,0,0.26458333,0,-160.20003)"
       id="path4624" />
    <path
       style="fill:none;stroke:#000000;stroke-width:0.99999994;stroke-miterlimit:4;stroke-dasharray:none;stroke-opacity:1"
       d="M -1574.9062 -21.449219 L -1574.9062 2076.1875 L -441.04883 2076.1875 L -441.04883 -21.449219 L -1574.9062 -21.449219 z "
       id="rect3713"
       transform="matrix(0.26458333,0,0,0.26458333,0,-160.20003)" />
    <rect
       style="fill:none;stroke:#ff0000;stroke-width:0.26458332;stroke-miterlimit:4;stroke-dasharray:none;stroke-opacity:1"
       id="rect4563"
       width="277"
       height="60.61673"
       x="-1389.7145"
       y="-274.62994" />
    <path
       id="path4062"
       d="m -400.694,485.31413 a 4.5000123,3.4999985 0 0 1 -4.50001,3.5 4.5000123,3.4999985 0 0 1 -4.49999,-3.5 4.5000123,3.4999985 0 0 1 4.49999,-3.5 4.5000123,3.4999985 0 0 1 4.50001,3.5 z"
       style="display:inline;fill:none;fill-opacity:1;stroke:#000000;stroke-width:0.26458332;stroke-miterlimit:4;stroke-dasharray:none;stroke-opacity:1"
       inkscape:connector-curvature="0" />
    <path
       inkscape:connector-curvature="0"
       style="display:inline;fill:none;fill-opacity:1;stroke:#000000;stroke-width:0.26458332;stroke-miterlimit:4;stroke-dasharray:none;stroke-opacity:1"
       d="m -123.694,485.31413 a 4.5000123,3.4999985 0 0 1 -4.50001,3.5 4.5000123,3.4999985 0 0 1 -4.49999,-3.5 4.5000123,3.4999985 0 0 1 4.49999,-3.5 4.5000123,3.4999985 0 0 1 4.50001,3.5 z"
       id="path4567" />
    <rect
       y="389.12469"
       x="-1520.9479"
       height="150"
       width="72.741669"
       id="rect4573"
       style="fill:none;stroke:#ff0000;stroke-width:0.26458332;stroke-miterlimit:4;stroke-dasharray:none;stroke-opacity:1" />
    <rect
       style="fill:none;stroke:#ff0000;stroke-width:0.26458332;stroke-miterlimit:4;stroke-dasharray:none;stroke-opacity:1"
       id="rect4575"
       width="72.741669"
       height="555.34167"
       x="-1520.9479"
       y="-166.21695" />
    <path
       inkscape:connector-curvature="0"
       style="display:inline;fill:none;fill-opacity:1;stroke:#000000;stroke-width:0.26458332;stroke-miterlimit:4;stroke-dasharray:none;stroke-opacity:1"
       d="m -400.694,429.22244 a 4.5000123,3.4999985 0 0 1 -4.50001,3.5 4.5000123,3.4999985 0 0 1 -4.49999,-3.5 4.5000123,3.4999985 0 0 1 4.49999,-3.5 4.5000123,3.4999985 0 0 1 4.50001,3.5 z"
       id="path4579" />
    <path
       id="path4581"
       d="m -123.694,429.22244 a 4.5000123,3.4999985 0 0 1 -4.50001,3.5 4.5000123,3.4999985 0 0 1 -4.49999,-3.5 4.5000123,3.4999985 0 0 1 4.49999,-3.5 4.5000123,3.4999985 0 0 1 4.50001,3.5 z"
       style="display:inline;fill:none;fill-opacity:1;stroke:#000000;stroke-width:0.26458332;stroke-miterlimit:4;stroke-dasharray:none;stroke-opacity:1"
       inkscape:connector-curvature="0" />
    <rect
       style="fill:none;stroke:#000000;stroke-width:0.26458332;stroke-miterlimit:4;stroke-dasharray:none;stroke-opacity:1"
       y="-144.70862"
       x="-1223.144"
       height="660"
       width="300"
       id="rect4586" />
    <rect
       id="rect4588"
       width="255"
       height="45"
       x="-1200.644"
       y="515.29138"
       style="fill:none;stroke:#000000;stroke-width:0.26458332;stroke-miterlimit:4;stroke-dasharray:none;stroke-opacity:1" />
    <g
       transform="translate(-808.91609,622.29999)"
       id="g4594">
      <path
         id="path4590"
         d="m -399.22791,-131.6942 a 3.5000095,3.4999985 0 0 1 -3.50001,3.5 3.5000095,3.4999985 0 0 1 -3.49999,-3.5 3.5000095,3.4999985 0 0 1 3.49999,-3.5 3.5000095,3.4999985 0 0 1 3.50001,3.5 z"
         style="display:inline;fill:none;fill-opacity:1;stroke:#000000;stroke-width:0.26458332;stroke-miterlimit:4;stroke-dasharray:none;stroke-opacity:1"
         inkscape:connector-curvature="0" />
      <path
         inkscape:connector-curvature="0"
         style="display:inline;fill:none;fill-opacity:1;stroke:#000000;stroke-width:0.26458332;stroke-miterlimit:4;stroke-dasharray:none;stroke-opacity:1"
         d="m -122.22791,-131.6942 a 3.5000095,3.4999985 0 0 1 -3.50001,3.5 3.5000095,3.4999985 0 0 1 -3.49999,-3.5 3.5000095,3.4999985 0 0 1 3.49999,-3.5 3.5000095,3.4999985 0 0 1 3.50001,3.5 z"
         id="path4592" />
    </g>
    <path
       sodipodi:nodetypes="cc"
       inkscape:connector-curvature="0"
       id="path4596"
       d="m -1223.144,410.29136 h 300"
       style="fill:none;stroke:#000000;stroke-width:0.26458332px;stroke-linecap:butt;stroke-linejoin:miter;stroke-opacity:1" />
    <g
       id="g4602"
       transform="translate(-808.91609,566.2083)">
      <path
         inkscape:connector-curvature="0"
         style="display:inline;fill:none;fill-opacity:1;stroke:#000000;stroke-width:0.26458332;stroke-miterlimit:4;stroke-dasharray:none;stroke-opacity:1"
         d="m -399.22791,-131.6942 a 3.5000095,3.4999985 0 0 1 -3.50001,3.5 3.5000095,3.4999985 0 0 1 -3.49999,-3.5 3.5000095,3.4999985 0 0 1 3.49999,-3.5 3.5000095,3.4999985 0 0 1 3.50001,3.5 z"
         id="path4598" />
      <path
         id="path4600"
         d="m -122.22791,-131.6942 a 3.5000095,3.4999985 0 0 1 -3.50001,3.5 3.5000095,3.4999985 0 0 1 -3.49999,-3.5 3.5000095,3.4999985 0 0 1 3.49999,-3.5 3.5000095,3.4999985 0 0 1 3.50001,3.5 z"
         style="display:inline;fill:none;fill-opacity:1;stroke:#000000;stroke-width:0.26458332;stroke-miterlimit:4;stroke-dasharray:none;stroke-opacity:1"
         inkscape:connector-curvature="0" />
    </g>
    <path
       id="path4605"
       d="m -400.694,364.66406 a 4.5000123,3.4999985 0 0 1 -4.50001,3.5 4.5000123,3.4999985 0 0 1 -4.49999,-3.5 4.5000123,3.4999985 0 0 1 4.49999,-3.5 4.5000123,3.4999985 0 0 1 4.50001,3.5 z"
       style="display:inline;fill:none;fill-opacity:1;stroke:#000000;stroke-width:0.26458332;stroke-miterlimit:4;stroke-dasharray:none;stroke-opacity:1"
       inkscape:connector-curvature="0" />
    <path
       inkscape:connector-curvature="0"
       style="display:inline;fill:none;fill-opacity:1;stroke:#000000;stroke-width:0.26458332;stroke-miterlimit:4;stroke-dasharray:none;stroke-opacity:1"
       d="m -123.694,364.66406 a 4.5000123,3.4999985 0 0 1 -4.50001,3.5 4.5000123,3.4999985 0 0 1 -4.49999,-3.5 4.5000123,3.4999985 0 0 1 4.49999,-3.5 4.5000123,3.4999985 0 0 1 4.50001,3.5 z"
       id="path4607" />
    <path
       inkscape:connector-curvature="0"
       style="display:inline;fill:none;fill-opacity:1;stroke:#000000;stroke-width:0.26458332;stroke-miterlimit:4;stroke-dasharray:none;stroke-opacity:1"
       d="m -400.694,-141.2237 a 4.5000123,3.4999985 0 0 1 -4.50001,3.5 4.5000123,3.4999985 0 0 1 -4.49999,-3.5 4.5000123,3.4999985 0 0 1 4.49999,-3.5 4.5000123,3.4999985 0 0 1 4.50001,3.5 z"
       id="path4611" />
    <path
       id="path4613"
       d="m -123.694,-141.2237 a 4.5000123,3.4999985 0 0 1 -4.50001,3.5 4.5000123,3.4999985 0 0 1 -4.49999,-3.5 4.5000123,3.4999985 0 0 1 4.49999,-3.5 4.5000123,3.4999985 0 0 1 4.50001,3.5 z"
       style="display:inline;fill:none;fill-opacity:1;stroke:#000000;stroke-width:0.26458332;stroke-miterlimit:4;stroke-dasharray:none;stroke-opacity:1"
       inkscape:connector-curvature="0" />
    <path
       id="path4617"
       d="m -400.694,111.72019 a 4.5000123,3.4999985 0 0 1 -4.50001,3.5 4.5000123,3.4999985 0 0 1 -4.49999,-3.5 4.5000123,3.4999985 0 0 1 4.49999,-3.5 4.5000123,3.4999985 0 0 1 4.50001,3.5 z"
       style="display:inline;fill:none;fill-opacity:1;stroke:#000000;stroke-width:0.26458332;stroke-miterlimit:4;stroke-dasharray:none;stroke-opacity:1"
       inkscape:connector-curvature="0" />
    <path
       inkscape:connector-curvature="0"
       style="display:inline;fill:none;fill-opacity:1;stroke:#000000;stroke-width:0.26458332;stroke-miterlimit:4;stroke-dasharray:none;stroke-opacity:1"
       d="m -123.694,111.72019 a 4.5000123,3.4999985 0 0 1 -4.50001,3.5 4.5000123,3.4999985 0 0 1 -4.49999,-3.5 4.5000123,3.4999985 0 0 1 4.49999,-3.5 4.5000123,3.4999985 0 0 1 4.50001,3.5 z"
       id="path4619" />
    <rect
       style="fill:none;stroke:#080000;stroke-width:0.26458338;stroke-miterlimit:4;stroke-dasharray:none;stroke-opacity:1"
       id="rect4626"
       width="327"
       height="150"
       x="-93.902275"
       y="404.93362"
       ry="0" />
    <path
       inkscape:connector-curvature="0"
       style="display:inline;fill:none;fill-opacity:1;stroke:#000000;stroke-width:0.26458332;stroke-miterlimit:4;stroke-dasharray:none;stroke-opacity:1"
       d="m -76.402274,429.22244 a 4.5000123,3.4999985 0 0 1 -4.500012,3.5 4.5000123,3.4999985 0 0 1 -4.499988,-3.5 4.5000123,3.4999985 0 0 1 4.499988,-3.5 4.5000123,3.4999985 0 0 1 4.500012,3.5 z"
       id="path4628" />
    <path
       id="path4630"
       d="m 224.59772,429.22244 a 4.5000123,3.4999985 0 0 1 -4.50001,3.5 4.5000123,3.4999985 0 0 1 -4.49999,-3.5 4.5000123,3.4999985 0 0 1 4.49999,-3.5 4.5000123,3.4999985 0 0 1 4.50001,3.5 z"
       style="display:inline;fill:none;fill-opacity:1;stroke:#000000;stroke-width:0.26458332;stroke-miterlimit:4;stroke-dasharray:none;stroke-opacity:1"
       inkscape:connector-curvature="0" />
    <rect
       y="609.96692"
       x="-76.310608"
       height="60.61673"
       width="301"
       id="rect4640"
       style="fill:none;stroke:#ff0000;stroke-width:0.26458332;stroke-miterlimit:4;stroke-dasharray:none;stroke-opacity:1" />
    <path
       id="path4648"
       d="m -76.402274,529.76416 a 4.5000123,3.4999985 0 0 1 -4.500012,3.5 4.5000123,3.4999985 0 0 1 -4.499988,-3.5 4.5000123,3.4999985 0 0 1 4.499988,-3.5 4.5000123,3.4999985 0 0 1 4.500012,3.5 z"
       style="display:inline;fill:none;fill-opacity:1;stroke:#000000;stroke-width:0.26458332;stroke-miterlimit:4;stroke-dasharray:none;stroke-opacity:1"
       inkscape:connector-curvature="0" />
    <path
       inkscape:connector-curvature="0"
       style="display:inline;fill:none;fill-opacity:1;stroke:#000000;stroke-width:0.26458332;stroke-miterlimit:4;stroke-dasharray:none;stroke-opacity:1"
       d="m 224.59772,529.76416 a 4.5000123,3.4999985 0 0 1 -4.50001,3.5 4.5000123,3.4999985 0 0 1 -4.49999,-3.5 4.5000123,3.4999985 0 0 1 4.49999,-3.5 4.5000123,3.4999985 0 0 1 4.50001,3.5 z"
       id="path4650" />
    <path
       style="fill:none;stroke:#000000;stroke-width:0.99999994;stroke-miterlimit:4;stroke-dasharray:none;stroke-opacity:1"
       d="M 881 942.33008 L -354.90625 942.33008 L -354.90625 2076.1875 L 881 2076.1875 L 881 942.33008 z "
       id="path4897"
       transform="matrix(0.26458333,0,0,0.26458333,0,-160.20003)" />
    <path
       style="fill:none;stroke:#000000;stroke-width:0.26458332;stroke-miterlimit:4;stroke-dasharray:none;stroke-opacity:1"
       d="M -93.902277,-187.04181 V 67.958133 H 233.09791 V -187.04181 Z"
       id="path4654"
       inkscape:connector-curvature="0" />
    <path
       id="path4656"
       d="m -76.402274,-162.39038 a 4.5000123,3.4999985 0 0 1 -4.500012,3.5 4.5000123,3.4999985 0 0 1 -4.499988,-3.5 4.5000123,3.4999985 0 0 1 4.499988,-3.5 4.5000123,3.4999985 0 0 1 4.500012,3.5 z"
       style="display:inline;fill:none;fill-opacity:1;stroke:#000000;stroke-width:0.26458332;stroke-miterlimit:4;stroke-dasharray:none;stroke-opacity:1"
       inkscape:connector-curvature="0" />
    <path
       inkscape:connector-curvature="0"
       style="display:inline;fill:none;fill-opacity:1;stroke:#000000;stroke-width:0.26458332;stroke-miterlimit:4;stroke-dasharray:none;stroke-opacity:1"
       d="m 224.59772,-162.39038 a 4.5000123,3.4999985 0 0 1 -4.50001,3.5 4.5000123,3.4999985 0 0 1 -4.49999,-3.5 4.5000123,3.4999985 0 0 1 4.49999,-3.5 4.5000123,3.4999985 0 0 1 4.50001,3.5 z"
       id="path4658" />
    <path
       id="path4662"
       d="m -76.402274,111.72019 a 4.5000123,3.4999985 0 0 1 -4.500012,3.5 4.5000123,3.4999985 0 0 1 -4.499988,-3.5 4.5000123,3.4999985 0 0 1 4.499988,-3.5 4.5000123,3.4999985 0 0 1 4.500012,3.5 z"
       style="display:inline;fill:none;fill-opacity:1;stroke:#000000;stroke-width:0.26458332;stroke-miterlimit:4;stroke-dasharray:none;stroke-opacity:1"
       inkscape:connector-curvature="0" />
    <path
       inkscape:connector-curvature="0"
       style="display:inline;fill:none;fill-opacity:1;stroke:#000000;stroke-width:0.26458332;stroke-miterlimit:4;stroke-dasharray:none;stroke-opacity:1"
       d="m 224.59772,111.72019 a 4.5000123,3.4999985 0 0 1 -4.50001,3.5 4.5000123,3.4999985 0 0 1 -4.49999,-3.5 4.5000123,3.4999985 0 0 1 4.49999,-3.5 4.5000123,3.4999985 0 0 1 4.50001,3.5 z"
       id="path4664" />
    <path
       id="path4668"
       d="m -76.402274,364.66406 a 4.5000123,3.4999985 0 0 1 -4.500012,3.5 4.5000123,3.4999985 0 0 1 -4.499988,-3.5 4.5000123,3.4999985 0 0 1 4.499988,-3.5 4.5000123,3.4999985 0 0 1 4.500012,3.5 z"
       style="display:inline;fill:none;fill-opacity:1;stroke:#000000;stroke-width:0.26458332;stroke-miterlimit:4;stroke-dasharray:none;stroke-opacity:1"
       inkscape:connector-curvature="0" />
    <path
       inkscape:connector-curvature="0"
       style="display:inline;fill:none;fill-opacity:1;stroke:#000000;stroke-width:0.26458332;stroke-miterlimit:4;stroke-dasharray:none;stroke-opacity:1"
       d="m 224.59772,364.66406 a 4.5000123,3.4999985 0 0 1 -4.50001,3.5 4.5000123,3.4999985 0 0 1 -4.49999,-3.5 4.5000123,3.4999985 0 0 1 4.49999,-3.5 4.5000123,3.4999985 0 0 1 4.50001,3.5 z"
       id="path4670" />
    <rect
       ry="0"
       y="404.93362"
       x="244.76448"
       height="150"
       width="327"
       id="rect4674"
       style="fill:none;stroke:#080000;stroke-width:0.26458338;stroke-miterlimit:4;stroke-dasharray:none;stroke-opacity:1" />
    <path
       id="path4676"
       d="m 262.26454,429.22244 a 4.5000123,3.4999985 0 0 1 -4.50001,3.5 4.5000123,3.4999985 0 0 1 -4.49999,-3.5 4.5000123,3.4999985 0 0 1 4.49999,-3.5 4.5000123,3.4999985 0 0 1 4.50001,3.5 z"
       style="display:inline;fill:none;fill-opacity:1;stroke:#000000;stroke-width:0.26458332;stroke-miterlimit:4;stroke-dasharray:none;stroke-opacity:1"
       inkscape:connector-curvature="0" />
    <path
       inkscape:connector-curvature="0"
       style="display:inline;fill:none;fill-opacity:1;stroke:#000000;stroke-width:0.26458332;stroke-miterlimit:4;stroke-dasharray:none;stroke-opacity:1"
       d="m 563.26454,429.22244 a 4.5000123,3.4999985 0 0 1 -4.50001,3.5 4.5000123,3.4999985 0 0 1 -4.49999,-3.5 4.5000123,3.4999985 0 0 1 4.49999,-3.5 4.5000123,3.4999985 0 0 1 4.50001,3.5 z"
       id="path4678" />
    <path
       inkscape:connector-curvature="0"
       style="display:inline;fill:none;fill-opacity:1;stroke:#000000;stroke-width:0.26458332;stroke-miterlimit:4;stroke-dasharray:none;stroke-opacity:1"
       d="m 262.26454,529.76416 a 4.5000123,3.4999985 0 0 1 -4.50001,3.5 4.5000123,3.4999985 0 0 1 -4.49999,-3.5 4.5000123,3.4999985 0 0 1 4.49999,-3.5 4.5000123,3.4999985 0 0 1 4.50001,3.5 z"
       id="path4682" />
    <path
       id="path4684"
       d="m 563.26454,529.76416 a 4.5000123,3.4999985 0 0 1 -4.50001,3.5 4.5000123,3.4999985 0 0 1 -4.49999,-3.5 4.5000123,3.4999985 0 0 1 4.49999,-3.5 4.5000123,3.4999985 0 0 1 4.50001,3.5 z"
       style="display:inline;fill:none;fill-opacity:1;stroke:#000000;stroke-width:0.26458332;stroke-miterlimit:4;stroke-dasharray:none;stroke-opacity:1"
       inkscape:connector-curvature="0" />
    <path
       style="fill:none;stroke:#000000;stroke-width:0.99999994;stroke-miterlimit:4;stroke-dasharray:none;stroke-opacity:1"
       d="M -2814.9062 2136.1875 L -2814.9062 2533.0391 L -2729.8672 2533.0391 L -2729.8672 2703.1172 L -2729.8672 2722.0156 L -2259.9785 2722.0156 L -2259.9785 2710.0156 L -2235.9785 2710.0156 L -2235.9785 2722.0156 L -1766.0879 2722.0156 L -1766.0879 2703.1172 L -1766.0879 2533.0391 L -1681.0488 2533.0391 L -1681.0488 2136.1875 L -2814.9062 2136.1875 z "
       transform="matrix(0.26458333,0,0,0.26458333,0,-160.20003)"
       id="path4688" />
    <path
       style="fill:none;stroke:#000000;stroke-width:0.26458332;stroke-miterlimit:4;stroke-dasharray:none;stroke-opacity:1"
       d="m -1284.4314,119.05899 h -299.9998 v 299.99977 h 299.9998 z"
       id="path4747"
       inkscape:connector-curvature="0" />
    <path
       style="fill:none;stroke:#000000;stroke-width:0.26458332;stroke-miterlimit:4;stroke-dasharray:none;stroke-opacity:1"
       d="M -1584.4312,-160.28261 V 94.717321 h 299.9998 V -160.28261 Z"
       id="path4690"
       inkscape:connector-curvature="0" />
    <path
       inkscape:connector-curvature="0"
       style="display:inline;fill:none;fill-opacity:1;stroke:#000000;stroke-width:0.26458332;stroke-miterlimit:4;stroke-dasharray:none;stroke-opacity:1"
       d="m -728.77748,485.31413 a 4.5000123,3.4999985 0 0 1 -4.50001,3.5 4.5000123,3.4999985 0 0 1 -4.49999,-3.5 4.5000123,3.4999985 0 0 1 4.49999,-3.5 4.5000123,3.4999985 0 0 1 4.50001,3.5 z"
       id="path4692" />
    <path
       id="path4694"
       d="m -451.77748,485.31413 a 4.5000123,3.4999985 0 0 1 -4.50001,3.5 4.5000123,3.4999985 0 0 1 -4.49999,-3.5 4.5000123,3.4999985 0 0 1 4.49999,-3.5 4.5000123,3.4999985 0 0 1 4.50001,3.5 z"
       style="display:inline;fill:none;fill-opacity:1;stroke:#000000;stroke-width:0.26458332;stroke-miterlimit:4;stroke-dasharray:none;stroke-opacity:1"
       inkscape:connector-curvature="0" />
    <path
       id="path4698"
       d="m -728.77748,429.22244 a 4.5000123,3.4999985 0 0 1 -4.50001,3.5 4.5000123,3.4999985 0 0 1 -4.49999,-3.5 4.5000123,3.4999985 0 0 1 4.49999,-3.5 4.5000123,3.4999985 0 0 1 4.50001,3.5 z"
       style="display:inline;fill:none;fill-opacity:1;stroke:#000000;stroke-width:0.26458332;stroke-miterlimit:4;stroke-dasharray:none;stroke-opacity:1"
       inkscape:connector-curvature="0" />
    <path
       inkscape:connector-curvature="0"
       style="display:inline;fill:none;fill-opacity:1;stroke:#000000;stroke-width:0.26458332;stroke-miterlimit:4;stroke-dasharray:none;stroke-opacity:1"
       d="m -451.77748,429.22244 a 4.5000123,3.4999985 0 0 1 -4.50001,3.5 4.5000123,3.4999985 0 0 1 -4.49999,-3.5 4.5000123,3.4999985 0 0 1 4.49999,-3.5 4.5000123,3.4999985 0 0 1 4.50001,3.5 z"
       id="path4700" />
    <g
       id="g4714"
       transform="translate(-1170.2035,-3.936981)">
      <path
         inkscape:connector-curvature="0"
         style="display:inline;fill:none;fill-opacity:1;stroke:#000000;stroke-width:0.26458332;stroke-miterlimit:4;stroke-dasharray:none;stroke-opacity:1"
         d="m -399.22791,-131.6942 a 3.5000095,3.4999985 0 0 1 -3.50001,3.5 3.5000095,3.4999985 0 0 1 -3.49999,-3.5 3.5000095,3.4999985 0 0 1 3.49999,-3.5 3.5000095,3.4999985 0 0 1 3.50001,3.5 z"
         id="path4710" />
      <path
         id="path4712"
         d="m -122.22791,-131.6942 a 3.5000095,3.4999985 0 0 1 -3.50001,3.5 3.5000095,3.4999985 0 0 1 -3.49999,-3.5 3.5000095,3.4999985 0 0 1 3.49999,-3.5 3.5000095,3.4999985 0 0 1 3.50001,3.5 z"
         style="display:inline;fill:none;fill-opacity:1;stroke:#000000;stroke-width:0.26458332;stroke-miterlimit:4;stroke-dasharray:none;stroke-opacity:1"
         inkscape:connector-curvature="0" />
    </g>
    <path
       inkscape:connector-curvature="0"
       style="fill:none;stroke:#000000;stroke-width:0.26458332;stroke-miterlimit:4;stroke-dasharray:none;stroke-opacity:1"
       d="M 244.76449,-165.87514 V 389.12457 H 571.76461 V -165.87514 Z"
       id="path4722" />
    <path
       inkscape:connector-curvature="0"
       style="display:inline;fill:none;fill-opacity:1;stroke:#000000;stroke-width:0.26458332;stroke-miterlimit:4;stroke-dasharray:none;stroke-opacity:1"
       d="m 264.5223,-141.2237 a 4.5000123,3.4999985 0 0 1 -4.50001,3.5 4.5000123,3.4999985 0 0 1 -4.49999,-3.5 4.5000123,3.4999985 0 0 1 4.49999,-3.5 4.5000123,3.4999985 0 0 1 4.50001,3.5 z"
       id="path4724" />
    <path
       id="path4726"
       d="m 561.00678,-141.2237 a 4.5000123,3.4999985 0 0 1 -4.50001,3.5 4.5000123,3.4999985 0 0 1 -4.49999,-3.5 4.5000123,3.4999985 0 0 1 4.49999,-3.5 4.5000123,3.4999985 0 0 1 4.50001,3.5 z"
       style="display:inline;fill:none;fill-opacity:1;stroke:#000000;stroke-width:0.26458332;stroke-miterlimit:4;stroke-dasharray:none;stroke-opacity:1"
       inkscape:connector-curvature="0" />
    <path
       inkscape:connector-curvature="0"
       style="display:inline;fill:none;fill-opacity:1;stroke:#000000;stroke-width:0.26458332;stroke-miterlimit:4;stroke-dasharray:none;stroke-opacity:1"
       d="m 264.5223,111.72019 a 4.5000123,3.4999985 0 0 1 -4.50001,3.5 4.5000123,3.4999985 0 0 1 -4.49999,-3.5 4.5000123,3.4999985 0 0 1 4.49999,-3.5 4.5000123,3.4999985 0 0 1 4.50001,3.5 z"
       id="path4730" />
    <path
       id="path4732"
       d="m 561.00678,111.72019 a 4.5000123,3.4999985 0 0 1 -4.50001,3.5 4.5000123,3.4999985 0 0 1 -4.49999,-3.5 4.5000123,3.4999985 0 0 1 4.49999,-3.5 4.5000123,3.4999985 0 0 1 4.50001,3.5 z"
       style="display:inline;fill:none;fill-opacity:1;stroke:#000000;stroke-width:0.26458332;stroke-miterlimit:4;stroke-dasharray:none;stroke-opacity:1"
       inkscape:connector-curvature="0" />
    <path
       inkscape:connector-curvature="0"
       style="display:inline;fill:none;fill-opacity:1;stroke:#000000;stroke-width:0.26458332;stroke-miterlimit:4;stroke-dasharray:none;stroke-opacity:1"
       d="m 264.5223,364.66406 a 4.5000123,3.4999985 0 0 1 -4.50001,3.5 4.5000123,3.4999985 0 0 1 -4.49999,-3.5 4.5000123,3.4999985 0 0 1 4.49999,-3.5 4.5000123,3.4999985 0 0 1 4.50001,3.5 z"
       id="path4736" />
    <path
       id="path4738"
       d="m 561.00678,364.66406 a 4.5000123,3.4999985 0 0 1 -4.50001,3.5 4.5000123,3.4999985 0 0 1 -4.49999,-3.5 4.5000123,3.4999985 0 0 1 4.49999,-3.5 4.5000123,3.4999985 0 0 1 4.50001,3.5 z"
       style="display:inline;fill:none;fill-opacity:1;stroke:#000000;stroke-width:0.26458332;stroke-miterlimit:4;stroke-dasharray:none;stroke-opacity:1"
       inkscape:connector-curvature="0" />
    <rect
       y="89.124573"
       x="-830.91449"
       height="300"
       width="50"
       id="rect4742"
       style="fill:none;stroke:#ff0000;stroke-width:0.26458332;stroke-miterlimit:4;stroke-dasharray:none;stroke-opacity:1" />
    <g
       id="g4753"
       transform="translate(-1170.2035,204.55687)">
      <path
         inkscape:connector-curvature="0"
         style="display:inline;fill:none;fill-opacity:1;stroke:#000000;stroke-width:0.26458332;stroke-miterlimit:4;stroke-dasharray:none;stroke-opacity:1"
         d="m -399.22791,-131.6942 a 3.5000095,3.4999985 0 0 1 -3.50001,3.5 3.5000095,3.4999985 0 0 1 -3.49999,-3.5 3.5000095,3.4999985 0 0 1 3.49999,-3.5 3.5000095,3.4999985 0 0 1 3.50001,3.5 z"
         id="path4749" />
      <path
         id="path4751"
         d="m -122.22791,-131.6942 a 3.5000095,3.4999985 0 0 1 -3.50001,3.5 3.5000095,3.4999985 0 0 1 -3.49999,-3.5 3.5000095,3.4999985 0 0 1 3.49999,-3.5 3.5000095,3.4999985 0 0 1 3.50001,3.5 z"
         style="display:inline;fill:none;fill-opacity:1;stroke:#000000;stroke-width:0.26458332;stroke-miterlimit:4;stroke-dasharray:none;stroke-opacity:1"
         inkscape:connector-curvature="0" />
    </g>
    <g
       transform="translate(-1170.2035,271.16044)"
       id="g4759">
      <path
         id="path4755"
         d="m -399.22791,-131.6942 a 3.5000095,3.4999985 0 0 1 -3.50001,3.5 3.5000095,3.4999985 0 0 1 -3.49999,-3.5 3.5000095,3.4999985 0 0 1 3.49999,-3.5 3.5000095,3.4999985 0 0 1 3.50001,3.5 z"
         style="display:inline;fill:none;fill-opacity:1;stroke:#000000;stroke-width:0.26458332;stroke-miterlimit:4;stroke-dasharray:none;stroke-opacity:1"
         inkscape:connector-curvature="0" />
      <path
         inkscape:connector-curvature="0"
         style="display:inline;fill:none;fill-opacity:1;stroke:#000000;stroke-width:0.26458332;stroke-miterlimit:4;stroke-dasharray:none;stroke-opacity:1"
         d="m -122.22791,-131.6942 a 3.5000095,3.4999985 0 0 1 -3.50001,3.5 3.5000095,3.4999985 0 0 1 -3.49999,-3.5 3.5000095,3.4999985 0 0 1 3.49999,-3.5 3.5000095,3.4999985 0 0 1 3.50001,3.5 z"
         id="path4757" />
    </g>
    <path
       id="path4761"
       d="m -1569.4314,399.28707 a 3.5000095,3.4999985 0 0 1 -3.5,3.5 3.5000095,3.4999985 0 0 1 -3.5,-3.5 3.5000095,3.4999985 0 0 1 3.5,-3.5 3.5000095,3.4999985 0 0 1 3.5,3.5 z"
       style="display:inline;fill:none;fill-opacity:1;stroke:#000000;stroke-width:0.26458332;stroke-miterlimit:4;stroke-dasharray:none;stroke-opacity:1"
       inkscape:connector-curvature="0" />
    <path
       inkscape:connector-curvature="0"
       style="display:inline;fill:none;fill-opacity:1;stroke:#000000;stroke-width:0.26458332;stroke-miterlimit:4;stroke-dasharray:none;stroke-opacity:1"
       d="m -1292.4314,399.28707 a 3.5000095,3.4999985 0 0 1 -3.5,3.5 3.5000095,3.4999985 0 0 1 -3.5,-3.5 3.5000095,3.4999985 0 0 1 3.5,-3.5 3.5000095,3.4999985 0 0 1 3.5,3.5 z"
       id="path4763" />
    <path
       inkscape:connector-curvature="0"
       style="display:inline;fill:none;fill-opacity:1;stroke:#000000;stroke-width:0.26458332;stroke-miterlimit:4;stroke-dasharray:none;stroke-opacity:1"
       d="m -1516.5147,245.82864 a 3.5000095,3.4999985 0 0 1 -3.5,3.5 3.5000095,3.4999985 0 0 1 -3.5,-3.5 3.5000095,3.4999985 0 0 1 3.5,-3.5 3.5000095,3.4999985 0 0 1 3.5,3.5 z"
       id="path4767" />
    <path
       id="path4769"
       d="m -1345.3481,245.82864 a 3.5000095,3.4999985 0 0 1 -3.5,3.5 3.5000095,3.4999985 0 0 1 -3.5,-3.5 3.5000095,3.4999985 0 0 1 3.5,-3.5 3.5000095,3.4999985 0 0 1 3.5,3.5 z"
       style="display:inline;fill:none;fill-opacity:1;stroke:#000000;stroke-width:0.26458332;stroke-miterlimit:4;stroke-dasharray:none;stroke-opacity:1"
       inkscape:connector-curvature="0" />
    <rect
       style="fill:none;stroke:#000000;stroke-width:0.26458332;stroke-miterlimit:4;stroke-dasharray:none;stroke-opacity:1"
       y="417.41641"
       x="-709.07758"
       height="19.049999"
       width="228.60001"
       id="rect4775"
       ry="6.3610148" />
    <rect
       style="fill:none;stroke:#ff0000;stroke-width:0.26458332;stroke-miterlimit:4;stroke-dasharray:none;stroke-opacity:1"
       id="rect4777"
       width="50"
       height="127"
       x="-855.91449"
       y="427.99973" />
    <path
       inkscape:connector-curvature="0"
       id="path4860"
       d="M -744.77726,-165.87514 V 389.12457 H -444.7775 V -165.87514 Z"
       style="fill:none;stroke:#000000;stroke-width:0.26458332;stroke-miterlimit:4;stroke-dasharray:none;stroke-opacity:1" />
    <path
       inkscape:connector-curvature="0"
       style="display:inline;fill:none;fill-opacity:1;stroke:#000000;stroke-width:0.26458332;stroke-miterlimit:4;stroke-dasharray:none;stroke-opacity:1"
       d="m -728.77748,364.66406 a 4.5000123,3.4999985 0 0 1 -4.50001,3.5 4.5000123,3.4999985 0 0 1 -4.49999,-3.5 4.5000123,3.4999985 0 0 1 4.49999,-3.5 4.5000123,3.4999985 0 0 1 4.50001,3.5 z"
       id="path4862" />
    <path
       id="path4864"
       d="m -451.77748,364.66406 a 4.5000123,3.4999985 0 0 1 -4.50001,3.5 4.5000123,3.4999985 0 0 1 -4.49999,-3.5 4.5000123,3.4999985 0 0 1 4.49999,-3.5 4.5000123,3.4999985 0 0 1 4.50001,3.5 z"
       style="display:inline;fill:none;fill-opacity:1;stroke:#000000;stroke-width:0.26458332;stroke-miterlimit:4;stroke-dasharray:none;stroke-opacity:1"
       inkscape:connector-curvature="0" />
    <path
       id="path4866"
       d="m -728.77748,-141.2237 a 4.5000123,3.4999985 0 0 1 -4.50001,3.5 4.5000123,3.4999985 0 0 1 -4.49999,-3.5 4.5000123,3.4999985 0 0 1 4.49999,-3.5 4.5000123,3.4999985 0 0 1 4.50001,3.5 z"
       style="display:inline;fill:none;fill-opacity:1;stroke:#000000;stroke-width:0.26458332;stroke-miterlimit:4;stroke-dasharray:none;stroke-opacity:1"
       inkscape:connector-curvature="0" />
    <path
       inkscape:connector-curvature="0"
       style="display:inline;fill:none;fill-opacity:1;stroke:#000000;stroke-width:0.26458332;stroke-miterlimit:4;stroke-dasharray:none;stroke-opacity:1"
       d="m -451.77748,-141.2237 a 4.5000123,3.4999985 0 0 1 -4.50001,3.5 4.5000123,3.4999985 0 0 1 -4.49999,-3.5 4.5000123,3.4999985 0 0 1 4.49999,-3.5 4.5000123,3.4999985 0 0 1 4.50001,3.5 z"
       id="path4868" />
    <path
       inkscape:connector-curvature="0"
       style="display:inline;fill:none;fill-opacity:1;stroke:#000000;stroke-width:0.26458332;stroke-miterlimit:4;stroke-dasharray:none;stroke-opacity:1"
       d="m -728.77748,111.72019 a 4.5000123,3.4999985 0 0 1 -4.50001,3.5 4.5000123,3.4999985 0 0 1 -4.49999,-3.5 4.5000123,3.4999985 0 0 1 4.49999,-3.5 4.5000123,3.4999985 0 0 1 4.50001,3.5 z"
       id="path4870" />
    <path
       id="path4872"
       d="m -451.77748,111.72019 a 4.5000123,3.4999985 0 0 1 -4.50001,3.5 4.5000123,3.4999985 0 0 1 -4.49999,-3.5 4.5000123,3.4999985 0 0 1 4.49999,-3.5 4.5000123,3.4999985 0 0 1 4.50001,3.5 z"
       style="display:inline;fill:none;fill-opacity:1;stroke:#000000;stroke-width:0.26458332;stroke-miterlimit:4;stroke-dasharray:none;stroke-opacity:1"
       inkscape:connector-curvature="0" />
    <path
       inkscape:connector-curvature="0"
       style="display:inline;fill:none;fill-opacity:1;stroke:#000000;stroke-width:0.26458332;stroke-miterlimit:4;stroke-dasharray:none;stroke-opacity:1"
       d="m -76.402274,42.928513 a 4.5000123,3.4999985 0 0 1 -4.500012,3.5 4.5000123,3.4999985 0 0 1 -4.499988,-3.5 4.5000123,3.4999985 0 0 1 4.499988,-3.499997 4.5000123,3.4999985 0 0 1 4.500012,3.499997 z"
       id="path4892" />
    <path
       id="path4894"
       d="m 224.59772,42.928513 a 4.5000123,3.4999985 0 0 1 -4.50001,3.5 4.5000123,3.4999985 0 0 1 -4.49999,-3.5 4.5000123,3.4999985 0 0 1 4.49999,-3.499997 4.5000123,3.4999985 0 0 1 4.50001,3.499997 z"
       style="display:inline;fill:none;fill-opacity:1;stroke:#000000;stroke-width:0.26458332;stroke-miterlimit:4;stroke-dasharray:none;stroke-opacity:1"
       inkscape:connector-curvature="0" />
    <g
       id="g4905"
       transform="translate(1504.0292,-47.625002)">
      <path
         inkscape:connector-curvature="0"
         style="display:inline;fill:none;fill-opacity:1;stroke:#000000;stroke-width:0.26458332;stroke-miterlimit:4;stroke-dasharray:none;stroke-opacity:1"
         d="m -1516.5147,245.82864 a 3.5000095,3.4999985 0 0 1 -3.5,3.5 3.5000095,3.4999985 0 0 1 -3.5,-3.5 3.5000095,3.4999985 0 0 1 3.5,-3.5 3.5000095,3.4999985 0 0 1 3.5,3.5 z"
         id="path4899" />
      <path
         id="path4901"
         d="m -1345.3481,245.82864 a 3.5000095,3.4999985 0 0 1 -3.5,3.5 3.5000095,3.4999985 0 0 1 -3.5,-3.5 3.5000095,3.4999985 0 0 1 3.5,-3.5 3.5000095,3.4999985 0 0 1 3.5,3.5 z"
         style="display:inline;fill:none;fill-opacity:1;stroke:#000000;stroke-width:0.26458332;stroke-miterlimit:4;stroke-dasharray:none;stroke-opacity:1"
         inkscape:connector-curvature="0" />
    </g>
    <path
       inkscape:connector-curvature="0"
       style="display:inline;fill:none;fill-opacity:1;stroke:#000000;stroke-width:0.26458332;stroke-miterlimit:4;stroke-dasharray:none;stroke-opacity:1"
       d="m 11.401891,420.45369 a 3.5000095,3.4999985 0 0 1 -3.5000007,3.5 3.5000095,3.4999985 0 0 1 -3.5,-3.5 3.5000095,3.4999985 0 0 1 3.5,-3.5 3.5000095,3.4999985 0 0 1 3.5000007,3.5 z"
       id="path4907" />
    <path
       id="path4909"
       d="m 134.86857,420.45369 a 3.5000095,3.4999985 0 0 1 -3.5,3.5 3.5000095,3.4999985 0 0 1 -3.5,-3.5 3.5000095,3.4999985 0 0 1 3.5,-3.5 3.5000095,3.4999985 0 0 1 3.5,3.5 z"
       style="display:inline;fill:none;fill-opacity:1;stroke:#000000;stroke-width:0.26458332;stroke-miterlimit:4;stroke-dasharray:none;stroke-opacity:1"
       inkscape:connector-curvature="0" />
    <path
       id="path4921"
       d="m 11.401891,445.85369 a 3.5000095,3.4999985 0 0 1 -3.5000007,3.5 3.5000095,3.4999985 0 0 1 -3.5,-3.5 3.5000095,3.4999985 0 0 1 3.5,-3.5 3.5000095,3.4999985 0 0 1 3.5000007,3.5 z"
       style="display:inline;fill:none;fill-opacity:1;stroke:#000000;stroke-width:0.26458332;stroke-miterlimit:4;stroke-dasharray:none;stroke-opacity:1"
       inkscape:connector-curvature="0" />
    <path
       inkscape:connector-curvature="0"
       style="display:inline;fill:none;fill-opacity:1;stroke:#000000;stroke-width:0.26458332;stroke-miterlimit:4;stroke-dasharray:none;stroke-opacity:1"
       d="m 134.86857,445.85369 a 3.5000095,3.4999985 0 0 1 -3.5,3.5 3.5000095,3.4999985 0 0 1 -3.5,-3.5 3.5000095,3.4999985 0 0 1 3.5,-3.5 3.5000095,3.4999985 0 0 1 3.5,3.5 z"
       id="path4923" />
  </g>
</svg>
